<svg width="742" height="352" viewBox="0 0 742 352" fill="none" xmlns="http://www.w3.org/2000/svg">
<path fill-rule="evenodd" clip-rule="evenodd" d="M276 1C276 1.55 274.65 2 273 2C271.35 2 270 2.45 270 3C270 3.55 268.749 4 267.221 4C265.589 4 263.847 4.826 263 6C262.207 7.1 260.976 8 260.265 8C258.446 8 242 24.645 242 26.486C242 27.319 241.55 28 241 28C240.45 28 240 29.35 240 31C240 32.65 239.55 34 239 34C238.45 34 238 35.35 238 37C238 40.489 237.028 40.813 235 38C234.207 36.9 232.857 36 232 36C231.143 36 229.793 35.1 229 34C228.153 32.826 226.411 32 224.779 32C223.251 32 222 31.55 222 31C222 30.45 220.65 30 219 30C217.35 30 216 29.55 216 29C216 28.444 213.333 28 210 28C206.667 28 204 27.556 204 27C204 26.45 202.2 26 200 26C197.8 26 196 26.45 196 27C196 27.583 192.667 28 188 28C183.333 28 180 28.417 180 29C180 29.55 178.65 30 177 30C175.35 30 174 30.45 174 31C174 31.55 173.1 32 172 32C170.9 32 170 32.45 170 33C170 33.55 169.199 34 168.221 34C167.242 34 165.793 34.9 165 36C164.207 37.1 162.758 38 161.779 38C160.801 38 160 38.45 160 39C160 39.55 159.199 40 158.221 40C157.242 40 155.793 40.9 155 42C154.207 43.1 152.974 44 152.261 44C150.441 44 138 56.634 138 58.481C138 59.317 137.55 60 137 60C136.45 60 136 60.9 136 62C136 63.1 135.55 64 135 64C134.45 64 134 64.9 134 66C134 67.1 133.55 68 133 68C132.45 68 132 69.8 132 72C132 74.2 131.55 76 131 76C130.381 76 130 81.333 130 90C130 98.667 130.381 104 131 104C131.55 104 132 105.35 132 107C132 108.65 132.45 110 133 110C133.55 110 134 111.35 134 113C134 114.65 134.45 116 135 116C135.55 116 136 116.801 136 117.779C136 118.758 136.9 120.207 138 121C139.1 121.793 140 123.143 140 124C140 124.857 140.9 126.207 142 127C143.1 127.793 144 129.143 144 130C144 130.857 144.9 132.207 146 133C147.1 133.793 148 135.242 148 136.221C148 137.199 148.45 138 149 138C149.55 138 150 138.9 150 140C150 141.1 150.45 142 151 142C151.55 142 152 142.71 152 143.578C152 144.447 153.8 146.886 156 149C158.2 151.114 160 153.454 160 154.201C160 154.948 160.9 156.207 162 157C163.1 157.793 164 159.143 164 160C164 160.857 164.9 162.207 166 163C167.1 163.793 168 165.042 168 165.776C168 166.51 170.7 169.761 174 173C177.3 176.239 180 179.139 180 179.445C180 179.75 179.1 180 178 180C176.9 180 176 180.45 176 181C176 181.55 174.65 182 173 182C171.35 182 170 182.45 170 183C170 183.55 168.65 184 167 184C165.35 184 164 184.45 164 185C164 185.55 162.65 186 161 186C159.35 186 158 186.45 158 187C158 187.55 157.1 188 156 188C154.667 188 154 187.333 154 186C154 184.9 153.55 184 153 184C152.45 184 152 183.199 152 182.221C152 181.242 151.1 179.793 150 179C148.9 178.207 148 176.758 148 175.779C148 174.801 147.55 174 147 174C146.45 174 146 173.315 146 172.478C146 170.732 135.613 160 133.923 160C133.307 160 131.541 158.65 130 157C128.459 155.35 126.478 154 125.599 154C124.719 154 124 153.55 124 153C124 152.45 123.1 152 122 152C120.9 152 120 151.55 120 151C120 150.45 118.65 150 117 150C115.35 150 114 149.55 114 149C114 148.45 113.1 148 112 148C110.9 148 110 147.743 110 147.429C110 146.255 112.913 144 114.429 144C115.293 144 116 143.55 116 143C116 142.45 117.6 142 119.555 142C122.58 142 123.99 142.896 129 148C134.403 153.505 138 155.503 138 153C138 152.45 137.3 152 136.445 152C135.589 152 132.239 149.3 129 146C124.311 141.223 122.479 140 120.01 140C116.663 140 112 136.242 112 133.545C112 132.695 111.55 132 111 132C110.45 132 110 130.2 110 128C110 125.8 109.55 124 109 124C108.45 124 108 121.75 108 119C108 116.25 107.55 114 107 114C106.407 114 106 110.333 106 105C106 99.667 105.593 96 105 96C104.45 96 104 94.2 104 92C104 89.8 104.45 88 105 88C105.55 88 106 86.2 106 84C106 81.8 106.45 80 107 80C107.606 80 108 84.333 108 91C108 97.667 108.394 102 109 102C109.556 102 110 104.667 110 108C110 111.333 110.444 114 111 114C111.55 114 112 115.8 112 118C112 120.2 112.45 122 113 122C113.55 122 114 122.9 114 124C114 125.1 114.45 126 115 126C115.55 126 116 126.9 116 128C116 129.1 116.45 130 117 130C117.55 130 118 129.1 118 128C118 126.9 117.55 126 117 126C116.45 126 116 123.75 116 121C116 118.25 115.55 116 115 116C114.45 116 114 115.1 114 114C114 112.9 113.55 112 113 112C112.378 112 112 106.333 112 97C112 87.667 112.378 82 113 82C113.571 82 114 79 114 75C114 71 114.429 68 115 68C115.55 68 116 66.65 116 65C116 63.35 116.45 62 117 62C117.55 62 118 60.65 118 59C118 57.35 118.45 56 119 56C119.55 56 120 55.199 120 54.221C120 53.242 120.9 51.793 122 51C123.1 50.207 124 48.857 124 48C124 47.143 124.9 45.793 126 45C127.1 44.207 128 42.976 128 42.263C128 40.574 142.574 26 144.263 26C144.976 26 146.207 25.1 147 24C147.793 22.9 149.242 22 150.221 22C151.199 22 152 21.55 152 21C152 20.45 152.9 20 154 20C155.1 20 156 19.55 156 19C156 18.45 157.35 18 159 18C160.65 18 162 17.55 162 17C162 16.45 163.8 16 166 16C169.333 16 170 15.667 170 14C170 12.222 169.333 12 164 12C160.667 12 158 12.444 158 13C158 13.55 156.2 14 154 14C151.8 14 150 14.45 150 15C150 15.55 149.1 16 148 16C146.9 16 146 16.45 146 17C146 17.55 145.199 18 144.221 18C143.242 18 141.793 18.9 141 20C140.207 21.1 138.857 22 138 22C137.143 22 135.793 22.9 135 24C134.207 25.1 132.976 26 132.265 26C130.578 26 114 42.578 114 44.265C114 44.976 113.1 46.207 112 47C110.9 47.793 110 49.242 110 50.221C110 51.199 109.55 52 109 52C108.45 52 108 52.9 108 54C108 55.1 107.55 56 107 56C106.45 56 106 57.35 106 59C106 60.65 105.55 62 105 62C104.45 62 104 63.35 104 65C104 66.65 103.55 68 103 68C102.364 68 102 76 102 90C102 104 102.364 112 103 112C103.55 112 104 114.25 104 117C104 119.75 104.45 122 105 122C105.55 122 106 123.35 106 125C106 126.65 105.55 128 105 128C104.45 128 104 127.293 104 126.429C104 124.408 101.592 122 99.571 122C98.707 122 98 121.55 98 121C98 120.45 98.9 120 100 120C101.1 120 102 119.55 102 119C102 118.45 101.55 118 101 118C100.45 118 100 116.2 100 114C100 111.8 99.55 110 99 110C98.401 110 98 106.028 98 100.083C98 93.087 97.632 90.017 96.75 89.659C95.806 89.277 95.867 88.87 97 88C98.133 87.13 98.194 86.723 97.25 86.341C95.769 85.739 95.553 82 97 82C97.583 82 98 78.667 98 74C98 69.333 98.417 66 99 66C99.55 66 100 64.65 100 63C100 61.35 100.45 60 101 60C101.55 60 102 58.65 102 57C102 55.35 102.45 54 103 54C103.55 54 104 53.1 104 52C104 50.9 104.45 50 105 50C105.55 50 106 49.1 106 48C106 46.9 106.45 46 107 46C107.55 46 108 45.1 108 44C108 42.9 108.45 42 109 42C109.55 42 110 41.1 110 40C110 38.9 109.55 38 109 38C108.45 38 108 37.55 108 37C108 36.45 108.9 36 110 36C111.1 36 112 35.55 112 35C112 34.45 112.71 34 113.578 34C114.447 34 116.886 32.2 119 30C121.114 27.8 123.361 26 123.993 26C125.178 26 128 23.586 128 22.571C128 21.145 124.295 22.204 123 24C121.301 26.357 119.408 26.551 117.429 24.571C115.254 22.397 115.651 22 120 22C123.333 22 124 21.667 124 20C124 18.457 123.333 18 121.083 18C119.479 18 117.904 18.563 117.583 19.25C117.117 20.25 116.883 20.25 116.417 19.25C115.605 17.51 107.21 17.647 105.429 19.429C103.42 21.437 103.637 22.728 106.455 25.545C108.94 28.03 112 28.833 112 27C112 26.45 112.9 26 114 26C115.333 26 116 26.667 116 28C116 29.667 115.333 30 112 30C108.37 30 108 30.238 108 32.571C108 35.465 105.932 38 103.571 38C102.707 38 102 38.45 102 39C102 39.55 101.1 40 100 40C98.517 40 98 40.667 98 42.578C98 44.279 96.639 46.465 94 49C91.8 51.114 90 53.553 90 54.422C90 55.29 89.55 56 89 56C88.45 56 88 53.943 88 51.429C88 46.974 89.602 44 92 44C93.18 44 96 41.583 96 40.571C96 40.257 92.85 40 89 40C81.677 40 80.673 40.602 84 43C85.662 44.198 86 45.589 86 51.221V58H83C81.35 58 80 57.55 80 57C80 56.45 79.293 56 78.429 56C76.408 56 74 53.592 74 51.571C74 50.707 73.55 50 73 50C72.403 50 72 53.857 72 59.571C72 69.43 71.084 72 67.571 72C66.707 72 66 72.45 66 73C66 73.55 64.65 74 63 74C60.667 74 60 74.444 60 76C60 78.25 63.444 78.835 64.417 76.75C64.883 75.75 65.117 75.75 65.583 76.75C65.904 77.437 67.029 78 68.083 78C69.138 78 70 78.45 70 79C70 79.55 70.9 80 72 80C73.1 80 74 80.45 74 81C74 81.55 75.135 82 76.522 82C80.01 82 90 91.99 90 95.478C90 96.865 89.743 98 89.429 98C88.436 98 86 95.19 86 94.045C86 92.377 77.266 84 75.526 84C74.687 84 74 83.55 74 83C74 80.884 66.951 81.958 64.455 84.455C61.474 87.435 61.264 90 64 90C65.1 90 66 89.55 66 89C66 88.45 66.45 88 67 88C67.55 88 68 88.9 68 90C68 91.1 67.55 92 67 92C66.45 92 66 92.9 66 94C66 95.1 66.45 96 67 96C67.55 96 68 97.619 68 99.599C68 102.308 68.742 103.89 71 106C72.65 107.541 74 109.522 74 110.401C74 111.281 74.45 112 75 112C75.55 112 76 112.9 76 114C76 115.1 75.55 116 75 116C74.45 116 74 116.9 74 118C74 119.733 74.667 120 79 120C81.75 120 84 119.55 84 119C84 117.515 86.933 117.79 88.571 119.429C90.21 121.067 90.485 124 89 124C88.45 124 88 125.35 88 127C88 128.65 87.55 130 87 130C86.45 130 86 130.45 86 131C86 132.768 89.511 132.066 91 130C92.392 128.069 96 127.188 96 128.779C96 129.208 95.1 130.207 94 131C92.9 131.793 92 133.205 92 134.137C92 135.07 91.442 136.019 90.759 136.247C89.872 136.543 90.025 137.168 91.297 138.44C93.002 140.145 93.152 140.131 94.905 138.109C95.911 136.949 97.469 136 98.367 136C99.265 136 100 135.293 100 134.429C100 132.913 102.255 130 103.429 130C103.743 130 104 130.9 104 132C104 133.1 104.45 134 105 134C105.55 134 106 135.313 106 136.917C106 138.521 106.563 140.062 107.25 140.341C108.194 140.723 108.133 141.13 107 142C105.867 142.87 105.806 143.277 106.75 143.659C110.199 145.059 107.083 146 99 146C93.667 146 90 145.593 90 145C90 144.417 86.667 144 82 144C77.333 144 74 144.417 74 145C74 145.556 71.333 146 68 146C64.667 146 62 146.444 62 147C62 147.55 60.65 148 59 148C57.35 148 56 148.45 56 149C56 149.55 54.65 150 53 150C51.35 150 50 150.45 50 151C50 151.55 48.65 152 47 152C45.35 152 44 152.45 44 153C44 153.55 43.199 154 42.221 154C41.242 154 39.793 154.9 39 156C38.207 157.1 36.954 158 36.214 158C35.475 158 32.679 160.25 30 163C27.321 165.75 24.636 168 24.032 168C22.486 168 16 174.659 16 176.246C16 176.968 15.1 178.207 14 179C12.9 179.793 12 181.143 12 182C12 182.857 11.1 184.207 10 185C8.9 185.793 8 187.242 8 188.221C8 189.199 7.55 190 7 190C6.45 190 6 191.35 6 193C6 194.65 5.55 196 5 196C4.45 196 4 197.8 4 200C4 202.2 3.55 204 3 204C2.444 204 2 206.667 2 210C2 213.333 1.556 216 1 216C0.45 216 0 218.25 0 221C0 223.75 0.45 226 1 226C1.556 226 2 228.667 2 232C2 235.333 2.444 238 3 238C3.55 238 4 239.8 4 242C4 244.2 4.45 246 5 246C5.55 246 6 247.35 6 249C6 250.65 6.45 252 7 252C7.55 252 8 252.719 8 253.599C8 254.478 9.35 256.459 11 258C12.65 259.541 14 261.341 14 262C14 262.659 15.35 264.459 17 266C18.65 267.541 20 269.309 20 269.928C20 271.392 28.608 280 30.072 280C30.691 280 32.459 281.35 34 283C35.541 284.65 37.341 286 38 286C38.659 286 40.459 287.35 42 289C43.541 290.65 45.522 292 46.401 292C47.281 292 48 292.45 48 293C48 293.55 49.35 294 51 294C52.65 294 54 294.45 54 295C54 295.55 55.8 296 58 296C60.2 296 62 296.45 62 297C62 297.55 63.35 298 65 298C66.65 298 68 298.45 68 299C68 299.55 70.25 300 73 300C75.75 300 78 300.45 78 301C78 301.636 86 302 100 302C114 302 122 301.636 122 301C122 300.45 123.8 300 126 300C128.2 300 130 299.55 130 299C130 298.45 131.35 298 133 298C134.65 298 136 297.55 136 297C136 296.45 137.35 296 139 296C140.65 296 142 295.55 142 295C142 294.45 143.35 294 145 294C146.65 294 148 293.55 148 293C148 292.45 148.9 292 150 292C151.1 292 152 291.55 152 291C152 290.45 152.9 290 154 290C155.1 290 156 289.55 156 289C156 288.45 156.9 288 158 288C159.1 288 160 287.55 160 287C160 286.45 160.9 286 162 286C163.1 286 164 285.55 164 285C164 284.45 164.801 284 165.779 284C166.758 284 168.207 283.1 169 282C169.793 280.9 171.052 280 171.799 280C172.546 280 174.886 278.2 177 276C179.114 273.8 181.338 272 181.943 272C183.389 272 194 261.371 194 259.923C194 259.307 195.35 257.541 197 256C198.65 254.459 200 252.671 200 252.027C200 250.526 202.513 248 204.007 248C204.639 248 206.886 249.8 209 252C211.114 254.2 213.553 256 214.422 256C215.333 256 216 256.845 216 258C216 259.1 216.45 260 217 260C217.55 260 218 260.719 218 261.599C218 262.478 219.35 264.459 221 266C222.65 267.541 224 269.522 224 270.401C224 271.281 224.45 272 225 272C225.55 272 226 272.9 226 274C226 275.1 226.45 276 227 276C227.55 276 228 276.9 228 278C228 279.1 227.743 280 227.429 280C226.335 280 224 277.134 224 275.792C224 275.049 223.1 273.793 222 273C220.9 272.207 220 270.758 220 269.779C220 268.801 219.55 268 219 268C218.45 268 218 267.1 218 266C218 264.9 217.55 264 217 264C216.45 264 216 263.293 216 262.429C216 260.913 213.745 258 212.571 258C212.257 258 212 260.25 212 263C212 267.333 211.733 268 210 268C208.9 268 208 268.45 208 269C208 269.55 207.1 270 206 270C204.667 270 204 270.667 204 272C204 273.543 204.667 274 206.917 274C208.521 274 210.096 274.562 210.417 275.25C210.883 276.25 211.117 276.25 211.583 275.25C212.363 273.579 214.809 273.667 216.571 275.429C218.614 277.471 218.344 280 216.083 280C215.029 280 213.904 280.562 213.583 281.25C213.117 282.25 212.883 282.25 212.417 281.25C212.096 280.563 211.151 280 210.318 280C209.484 280 207.541 278.65 206 277C202.981 273.768 200 273.046 200 275.545C200 277.546 204.454 282 206.455 282C207.305 282 208 282.45 208 283C208 283.55 209.701 284 211.779 284C214.411 284 215.996 283.393 217 282C218.714 279.623 222 279.341 222 281.571C222 283.499 219.623 286 217.792 286C217.049 286 215.793 286.9 215 288C213.515 290.061 208 290.848 208 289C208 288.45 207.199 288 206.221 288C205.242 288 203.793 287.1 203 286C202.207 284.9 200.758 284 199.779 284C198.801 284 198 283.55 198 283C198 282.45 196.65 282 195 282C193.35 282 192 281.55 192 281C192 280.45 191.1 280 190 280C188.667 280 188 280.667 188 282C188 283.333 188.667 284 190 284C191.1 284 192 284.45 192 285C192 285.55 192.801 286 193.779 286C194.758 286 196.207 286.9 197 288C197.793 289.1 199.242 290 200.221 290C201.333 290 202 290.749 202 292C202 294.25 198.556 294.835 197.583 292.75C197.117 291.75 196.883 291.75 196.417 292.75C195.593 294.515 191.161 294.304 189.266 292.409C187.978 291.121 187.927 290.663 189 290C190.073 289.337 190.022 288.879 188.734 287.591C186.633 285.49 186 285.584 186 288C186 289.1 185.55 290 185 290C184.444 290 184 292.667 184 296C184 299.333 184.444 302 185 302C185.55 302 186 304.25 186 307C186 309.75 186.45 312 187 312C187.589 312 188 315.524 188 320.571C188 329.734 188.986 332 192.974 332C195.433 332 200 327.804 200 325.545C200 324.695 200.45 324 201 324C201.593 324 202 327.667 202 333V342H205C206.65 342 208 341.55 208 341C208 340.45 209.35 340 211 340C213.833 340 214 340.222 214 344V348H218C220.2 348 222 347.55 222 347C222 346.45 223.35 346 225 346C227.667 346 228 346.333 228 349C228 351.667 228.333 352 231 352C232.65 352 234 351.55 234 351C234 350.45 234.69 350 235.533 350C237.524 350 244 343.524 244 341.533C244 340.69 244.45 340 245 340C245.55 340 246 339.1 246 338C246 336.333 246.667 336 250 336C252.2 336 254 335.55 254 335C254 334.45 254.695 334 255.545 334C256.395 334 258.195 332.895 259.545 331.545C261.69 329.401 262 328.195 262 322C262 315.805 261.69 314.599 259.545 312.455C258.195 311.105 256.395 310 255.545 310C254.667 310 254 309.137 254 308C254 306.444 254.667 306 257 306C258.65 306 260 305.55 260 305C260 304.45 261.157 304 262.571 304C265.825 304 268 301.858 268 298.655C268 297.286 268.563 295.938 269.25 295.659C270.194 295.277 270.133 294.87 269 294C267.867 293.13 267.806 292.723 268.75 292.341C270.853 291.487 270.151 288.944 267 286C265.35 284.459 264 282.238 264 281.065C264 278.065 257.667 272 254.533 272C253.14 272 252 271.55 252 271C252 270.45 250.688 270 249.083 270C247.479 270 245.974 269.437 245.738 268.75C245.467 267.96 244.185 268.696 242.254 270.75C240.573 272.537 238.478 274 237.599 274C236.719 274 236 274.45 236 275C236 276.485 233.067 276.21 231.429 274.571C230.643 273.786 230 271.986 230 270.571C230 269.157 229.55 268 229 268C227.232 268 227.934 264.489 230 263C231.393 261.996 232 260.411 232 257.779C232 255.701 231.55 254 231 254C230.45 254 230 252.2 230 250C230 247.8 229.55 246 229 246C228.45 246 228 244.393 228 242.429C228 239.293 226.244 236 224.571 236C224.257 236 224 239.15 224 243C224 247 224.429 250 225 250C225.55 250 226 251.35 226 253C226 254.65 226.45 256 227 256C227.55 256 228 256.9 228 258C228 259.1 227.743 260 227.429 260C226.255 260 224 257.087 224 255.571C224 254.707 223.55 254 223 254C222.45 254 222 253.31 222 252.467C222 250.476 215.524 244 213.533 244C212.69 244 212 243.55 212 243C212 242.45 211.1 242 210 242C208.9 242 208 241.55 208 241C208 240.45 208.9 240 210 240C211.333 240 212 239.333 212 238C212 236.9 211.55 236 211 236C210.45 236 210 234.65 210 233C210 231.35 210.45 230 211 230C211.63 230 212 223.333 212 212C212 200.667 211.63 194 211 194C210.45 194 210 191.75 210 189C210 186.25 209.55 184 209 184C207.466 184 207.813 177.044 209.429 175.429C210.214 174.643 211.564 174 212.429 174C213.293 174 214 173.55 214 173C214 172.45 215.35 172 217 172C218.65 172 220 171.55 220 171C220 170.45 221.35 170 223 170C224.65 170 226 169.55 226 169C226 168.45 226.45 168 227 168C227.571 168 228 171 228 175C228 179 227.571 182 227 182C226.367 182 226 189.333 226 202C226 214.667 226.367 222 227 222C227.556 222 228 224.667 228 228C228 231.333 228.444 234 229 234C229.55 234 230 235.607 230 237.571C230 241.24 232.94 245.681 233.753 243.241C233.981 242.558 234.819 242 235.617 242C236.414 242 238.627 240.44 240.533 238.533L244 235.067V225.533C244 219.844 244.403 216 245 216C245.556 216 246 213.333 246 210C246 206.667 246.444 204 247 204C247.55 204 248 202.65 248 201C248 199.35 248.45 198 249 198C249.55 198 250 197.1 250 196C250 194.9 250.45 194 251 194C251.55 194 252 193.1 252 192C252 190.9 252.45 190 253 190C253.55 190 254 189.1 254 188C254 186.9 254.45 186 255 186C255.55 186 256 185.1 256 184C256 182.9 256.45 182 257 182C257.55 182 258 181.1 258 180C258 178.9 258.45 178 259 178C259.55 178 260 177.199 260 176.221C260 175.242 260.9 173.793 262 173C263.1 172.207 264 170.857 264 170C264 169.143 264.9 167.793 266 167C267.1 166.207 268 164.968 268 164.246C268 162.423 274.595 156 276.467 156C277.31 156 278 155.55 278 155C278 154.45 280.25 154 283 154C287.333 154 288 154.267 288 156C288 157.1 288.45 158 289 158C289.55 158 290 158.9 290 160C290 161.1 289.55 162 289 162C288.45 162 288 163.8 288 166C288 168.2 287.55 170 287 170C286.45 170 286 171.35 286 173C286 174.65 285.55 176 285 176C284.45 176 284 176.9 284 178C284 179.1 283.55 180 283 180C282.45 180 282 181.8 282 184C282 186.2 281.55 188 281 188C280.45 188 280 188.9 280 190C280 191.1 279.55 192 279 192C278.45 192 278 193.8 278 196C278 198.2 277.55 200 277 200C276.45 200 276 201.8 276 204C276 206.2 275.55 208 275 208C274.444 208 274 210.667 274 214C274 217.333 274.444 220 275 220C275.55 220 276 221.35 276 223C276 224.65 276.45 226 277 226C277.55 226 278 226.9 278 228C278 229.333 278.667 230 280 230C281.1 230 282 230.45 282 231C282 231.55 283.8 232 286 232C288.2 232 290 232.45 290 233C290 233.55 291.35 234 293 234C294.65 234 296 233.55 296 233C296 232.45 297.35 232 299 232C300.65 232 302 231.55 302 231C302 230.45 302.9 230 304 230C305.1 230 306 229.55 306 229C306 228.45 306.682 228 307.516 228C309.492 228 324 213.492 324 211.516C324 210.667 324.879 210 326 210C327.333 210 328 209.333 328 208C328 206.9 328.45 206 329 206C329.55 206 330 207.8 330 210C330 212.2 330.45 214 331 214C331.55 214 332 215.137 332 216.526C332 219.111 339.803 228 342.072 228C342.691 228 344.459 229.35 346 231C347.541 232.65 349.522 234 350.401 234C351.281 234 352 234.45 352 235C352 235.583 355.333 236 360 236C364.667 236 368 235.583 368 235C368 234.45 368.9 234 370 234C371.1 234 372 233.55 372 233C372 232.45 373.35 232 375 232C376.65 232 378 231.55 378 231C378 230.45 378.9 230 380 230C381.1 230 382 229.55 382 229C382 228.45 382.801 228 383.779 228C384.758 228 386.207 227.1 387 226C387.793 224.9 389.143 224 390 224C390.857 224 392.207 223.1 393 222C393.793 220.9 395.038 220 395.766 220C397.363 220 402 215.535 402 213.997C402 213.396 405.15 209.797 409 206C412.85 202.203 416 198.59 416 197.97C416 197.35 417.8 195.114 420 193C422.2 190.886 424 188.546 424 187.799C424 187.052 424.9 185.793 426 185C427.1 184.207 428 182.758 428 181.779C428 180.801 428.45 180 429 180C429.55 180 430 179.199 430 178.221C430 177.242 430.9 175.793 432 175C433.1 174.207 434 172.758 434 171.779C434 170.801 434.45 170 435 170C435.55 170 436 169.1 436 168C436 166.9 436.45 166 437 166C437.55 166 438 165.1 438 164C438 162.9 437.768 162 437.484 162C436.456 162 422 176.996 422 178.062C422 178.664 420.2 180.886 418 183C415.8 185.114 414 187.454 414 188.201C414 188.948 413.1 190.207 412 191C410.9 191.793 410 193.039 410 193.769C410 194.499 406.85 198.203 403 202C399.15 205.797 396 209.6 396 210.452C396 211.303 395.281 212 394.401 212C393.522 212 391.541 213.35 390 215C388.459 216.65 386.478 218 385.599 218C384.719 218 384 218.45 384 219C384 219.55 383.1 220 382 220C380.9 220 380 220.45 380 221C380 221.55 379.1 222 378 222C376.9 222 376 222.45 376 223C376 223.55 373.75 224 371 224C368.25 224 366 223.55 366 223C366 222.45 365.305 222 364.455 222C362.454 222 358 217.546 358 215.545C358 214.695 357.55 214 357 214C356.4 214 356 210 356 204C356 194.667 356.133 194 358 194C359.1 194 360 193.55 360 193C360 192.45 361.35 192 363 192C364.65 192 366 191.55 366 191C366 190.45 367.35 190 369 190C370.65 190 372 189.55 372 189C372 188.45 372.801 188 373.779 188C374.758 188 376.207 187.1 377 186C377.793 184.9 379.242 184 380.221 184C381.199 184 382 183.55 382 183C382 182.45 382.71 182 383.578 182C384.447 182 386.886 180.2 389 178C391.114 175.8 393.361 174 393.993 174C395.565 174 398 171.443 398 169.792C398 169.049 398.9 167.793 400 167C401.174 166.153 402 164.411 402 162.779C402 161.251 402.45 160 403 160C403.55 160 404 159.1 404 158C404 156.9 403.55 156 403 156C402.45 156 402 154.855 402 153.455C402 150.648 397.975 146 395.545 146C394.695 146 394 145.55 394 145C394 144.394 389.667 144 383 144C376.333 144 372 144.394 372 145C372 145.55 370.65 146 369 146C367.35 146 366 146.45 366 147C366 147.55 365.296 148 364.435 148C363.574 148 360.679 150.25 358 153C355.321 155.75 352.63 158 352.019 158C350.561 158 346 162.586 346 164.053C346 164.683 344.65 166.459 343 168C341.35 169.541 340 171.522 340 172.401C340 173.281 339.55 174 339 174C338.45 174 338 174.9 338 176C338 177.1 337.55 178 337 178C336.45 178 336 178.9 336 180C336 181.1 335.55 182 335 182C334.45 182 334 182.9 334 184C334 185.1 333.55 186 333 186C332.45 186 332 186.9 332 188C332 189.1 331.55 190 331 190C330.45 190 330 190.801 330 191.779C330 192.758 329.1 194.207 328 195C326.9 195.793 326 197.242 326 198.221C326 199.199 325.55 200 325 200C324.45 200 324 200.682 324 201.516C324 203.492 309.492 218 307.516 218C306.682 218 306 218.45 306 219C306 219.55 304.2 220 302 220H298V215C298 212.25 298.45 210 299 210C299.55 210 300 208.65 300 207C300 205.35 300.45 204 301 204C301.55 204 302 202.65 302 201C302 199.35 302.45 198 303 198C303.55 198 304 196.65 304 195C304 193.35 304.45 192 305 192C305.55 192 306 190.2 306 188C306 185.8 306.45 184 307 184C307.55 184 308 183.1 308 182C308 180.9 308.45 180 309 180C309.55 180 310 178.65 310 177C310 175.35 310.45 174 311 174C311.55 174 312 172.2 312 170C312 167.8 312.45 166 313 166C313.55 166 314 164.2 314 162C314 159.8 313.55 158 313 158C312.45 158 312 156.65 312 155C312 153.35 311.55 152 311 152C310.45 152 310 151.293 310 150.429C310 148.501 307.623 146 305.792 146C305.049 146 303.793 145.1 303 144C301.771 142.295 300.411 142 293.779 142C289.26 142 286 142.419 286 143C286 143.55 284.65 144 283 144C281.35 144 280 144.45 280 145C280 145.55 279.319 146 278.486 146C276.112 146 260 162.634 260 165.085C260 166.247 258.65 168.459 257 170C255.155 171.723 254 173.803 254 175.401C254 176.831 253.55 178 253 178C252.45 178 252 178.9 252 180C252 181.1 251.55 182 251 182C250.45 182 250 182.9 250 184C250 185.333 249.333 186 248 186C246.9 186 246 185.55 246 185C246 184.45 246.45 184 247 184C247.55 184 248 182.65 248 181C248 179.35 248.45 178 249 178C249.55 178 250 175.75 250 173C250 170.25 250.45 168 251 168C251.556 168 252 165.333 252 162C252 158.667 252.444 156 253 156C253.55 156 254 153.75 254 151C254 148.25 254.45 146 255 146C255.55 146 256 143.75 256 141C256 138.25 256.45 136 257 136C257.55 136 258 134.65 258 133C258 131.35 258.45 130 259 130C259.55 130 260 128.65 260 127C260 125.35 260.45 124 261 124C261.55 124 262 123.1 262 122C262 120.9 262.45 120 263 120C263.55 120 264 119.1 264 118C264 116.9 264.45 116 265 116C265.55 116 266 114.65 266 113C266 111.35 266.45 110 267 110C267.55 110 268 108.65 268 107C268 105.35 268.45 104 269 104C269.55 104 270 103.1 270 102C270 100.9 270.45 100 271 100C271.55 100 272 99.1 272 98C272 96.9 272.45 96 273 96C273.55 96 274 95.293 274 94.429C274 90.548 276.281 90 292.429 90C302.143 90 308 90.376 308 91C308 91.583 311.333 92 316 92C320.667 92 324 91.583 324 91C324 90.389 328.667 90 336 90C343.333 90 348 89.611 348 89C348 88.417 351.333 88 356 88C360.667 88 364 87.583 364 87C364 86.45 366.25 86 369 86C371.75 86 374 85.55 374 85C374 84.45 376.25 84 379 84C381.75 84 384 83.55 384 83C384 82.45 386.25 82 389 82C391.75 82 394 81.55 394 81C394 80.45 396.25 80 399 80C401.75 80 404 79.55 404 79C404 78.45 405.35 78 407 78C408.65 78 410 77.55 410 77C410 76.45 411.8 76 414 76C416.2 76 418 75.55 418 75C418 74.45 419.8 74 422 74C424.2 74 426 73.55 426 73C426 72.45 427.8 72 430 72C432.2 72 434 71.55 434 71C434 70.45 435.8 70 438 70C440.2 70 442 69.55 442 69C442 68.45 443.8 68 446 68C448.2 68 450 67.55 450 67C450 66.45 451.35 66 453 66C454.65 66 456 65.55 456 65C456 64.45 457.35 64 459 64C460.65 64 462 63.55 462 63C462 62.45 463.35 62 465 62C466.65 62 468 61.55 468 61C468 60.45 469.8 60 472 60C474.2 60 476 59.55 476 59C476 58.45 477.8 58 480 58C482.2 58 484 57.55 484 57C484 56.45 485.35 56 487 56C488.65 56 490 55.55 490 55C490 54.45 491.8 54 494 54C496.2 54 498 53.55 498 53C498 52.45 499.35 52 501 52C502.65 52 504 51.55 504 51C504 50.45 505.8 50 508 50C510.2 50 512 49.55 512 49C512 48.45 514.25 48 517 48C519.75 48 522 47.55 522 47C522 46.45 523.35 46 525 46C526.65 46 528 45.55 528 45C528 44.45 529.8 44 532 44C534.2 44 536 43.55 536 43C536 42.45 537.35 42 539 42C540.65 42 542 41.55 542 41C542 40.45 543.8 40 546 40C548.2 40 550 39.55 550 39C550 38.45 551.8 38 554 38C556.2 38 558 37.55 558 37C558 36.45 559.35 36 561 36C562.65 36 564 35.55 564 35C564 34.45 565.8 34 568 34C570.2 34 572 33.55 572 33C572 32.45 573.8 32 576 32C578.2 32 580 31.55 580 31C580 30.444 582.667 30 586 30C589.333 30 592 29.556 592 29C592 28.45 594.25 28 597 28C599.75 28 602 27.55 602 27C602 26.45 604.25 26 607 26C609.75 26 612 25.55 612 25C612 24.407 615.667 24 621 24C626.333 24 630 23.593 630 23C630 22.385 635 22 643 22C651 22 656 22.385 656 23C656 23.556 658.667 24 662 24C665.333 24 668 24.444 668 25C668 25.55 669.8 26 672 26C674.2 26 676 26.45 676 27C676 27.55 677.35 28 679 28C680.65 28 682 28.45 682 29C682 29.55 683.35 30 685 30C686.65 30 688 30.45 688 31C688 31.55 688.9 32 690 32C691.1 32 692 32.45 692 33C692 33.55 692.9 34 694 34C695.1 34 696 34.45 696 35C696 35.55 696.801 36 697.779 36C698.758 36 700.207 36.9 701 38C701.793 39.1 703.026 40 703.739 40C705.323 40 718 52.517 718 54.08C718 54.695 719.35 56.459 721 58C722.65 59.541 724 61.522 724 62.401C724 63.281 724.45 64 725 64C725.55 64 726 64.9 726 66C726 67.1 726.45 68 727 68C727.55 68 728 68.9 728 70C728 71.1 728.45 72 729 72C729.55 72 730 73.35 730 75C730 76.65 730.45 78 731 78C731.55 78 732 80.25 732 83C732 85.75 732.45 88 733 88C733.556 88 734 90.667 734 94C734 97.333 734.444 100 735 100C735.6 100 736 104 736 110C736 116 735.6 120 735 120C734.417 120 734 123.333 734 128C734 132.667 733.583 136 733 136C732.45 136 732 137.8 732 140C732 142.2 731.55 144 731 144C730.45 144 730 144.9 730 146C730 147.1 729.55 148 729 148C728.45 148 728 149.35 728 151C728 152.65 727.55 154 727 154C726.45 154 726 155.35 726 157C726 158.65 725.55 160 725 160C724.45 160 724 160.9 724 162C724 163.1 723.55 164 723 164C722.45 164 722 164.801 722 165.779C722 166.758 721.1 168.207 720 169C718.9 169.793 718 171.242 718 172.221C718 173.199 717.55 174 717 174C716.45 174 716 174.71 716 175.578C716 176.447 714.2 178.886 712 181C709.8 183.114 708 185.373 708 186.02C708 186.668 706.65 188.459 705 190C703.35 191.541 702 193.303 702 193.915C702 195.368 685.368 212 683.915 212C683.303 212 681.541 213.35 680 215C678.459 216.65 676.478 218 675.599 218C674.719 218 674 218.45 674 219C674 219.55 673.199 220 672.221 220C671.242 220 669.793 220.9 669 222C668.207 223.1 666.758 224 665.779 224C664.801 224 664 224.45 664 225C664 225.55 663.1 226 662 226C660.9 226 660 226.45 660 227C660 227.55 659.1 228 658 228C656.9 228 656 228.45 656 229C656 229.55 654.65 230 653 230C651.35 230 650 230.45 650 231C650 232.518 645.052 232.195 643.429 230.571C641.736 228.879 641.347 212 643 212C643.55 212 644 210.2 644 208C644 205.8 644.45 204 645 204C645.55 204 646 202.2 646 200C646 197.8 646.45 196 647 196C647.55 196 648 194.65 648 193C648 191.35 648.45 190 649 190C649.55 190 650 188.65 650 187C650 185.35 650.45 184 651 184C651.55 184 652 181.75 652 179C652 176.25 652.45 174 653 174C653.556 174 654 171.333 654 168C654 164.667 653.556 162 653 162C652.45 162 652 161.199 652 160.221C652 159.242 651.1 157.793 650 157C648.9 156.207 648 154.758 648 153.779C648 152.74 647.26 152 646.221 152C645.242 152 643.793 151.1 643 150C641.747 148.261 640.411 148 632.779 148C627.593 148 624 148.409 624 149C624 149.55 623.1 150 622 150C620.9 150 620 150.45 620 151C620 151.55 619.319 152 618.487 152C616.76 152 598 170.393 598 172.086C598 172.697 596.65 174.459 595 176C593.35 177.541 592 179.423 592 180.18C592 180.938 591.1 182.207 590 183C588.9 183.793 588 185.242 588 186.221C588 187.199 587.55 188 587 188C586.45 188 586 188.9 586 190C586 191.1 585.55 192 585 192C584.45 192 584 190.65 584 189C584 187.35 584.45 186 585 186C585.55 186 586 184.65 586 183C586 181.35 586.45 180 587 180C587.55 180 588 179.1 588 178C588 176.9 588.45 176 589 176C589.55 176 590 174.65 590 173C590 171.35 590.45 170 591 170C591.55 170 592 168.65 592 167C592 165.35 592.45 164 593 164C593.55 164 594 162.65 594 161C594 159.35 594.45 158 595 158C595.55 158 596 155.493 596 152.429C596 146.695 594.584 144 591.571 144C590.707 144 590 143.55 590 143C590 142.45 588.65 142 587 142C585.35 142 584 141.55 584 141C584 140.45 581.75 140 579 140C576.25 140 574 140.45 574 141C574 141.55 573.1 142 572 142C570.148 142 570 142.667 570 151C570 156.333 569.593 160 569 160C568.45 160 568 161.8 568 164C568 166.2 567.55 168 567 168C566.45 168 566 169.8 566 172C566 174.2 565.55 176 565 176C564.45 176 564 176.9 564 178C564 179.1 563.55 180 563 180C562.45 180 562 180.9 562 182C562 183.1 561.55 184 561 184C560.45 184 560 184.9 560 186C560 187.1 559.55 188 559 188C558.45 188 558 188.719 558 189.599C558 190.478 556.65 192.459 555 194C553.35 195.541 552 197.304 552 197.917C552 199.372 537.372 214 535.917 214C535.304 214 533.541 215.35 532 217C530.323 218.796 528.188 220 526.682 220C525.299 220 523.981 220.558 523.753 221.241C523.202 222.893 520 219.762 520 217.571C520 216.707 519.55 216 519 216C518.45 216 518 215.1 518 214C518 212.9 518.45 212 519 212C519.556 212 520 209.333 520 206C520 202.667 520.444 200 521 200C521.55 200 522 199.1 522 198C522 196.9 522.45 196 523 196C523.55 196 524 194.65 524 193C524 191.35 524.45 190 525 190C525.55 190 526 188.65 526 187C526 185.35 526.45 184 527 184C527.55 184 528 182.65 528 181C528 179.35 528.45 178 529 178C529.55 178 530 176.65 530 175C530 173.35 530.45 172 531 172C531.55 172 532 170.65 532 169C532 167.35 532.45 166 533 166C533.55 166 534 163.75 534 161C534 158.25 534.45 156 535 156C535.565 156 536 153.152 536 149.455C536 143.838 535.652 142.561 533.545 140.455C531.862 138.772 529.976 138 527.545 138C525.595 138 524 137.55 524 137C524 136.45 521.75 136 519 136C514.739 136 514 136.283 514 137.917C514 138.971 513.438 140.062 512.75 140.341C511.806 140.723 511.867 141.13 513 142C514.133 142.87 514.194 143.277 513.25 143.659C512.549 143.944 512 145.887 512 148.083C512 150.238 511.55 152 511 152C510.45 152 510 153.35 510 155C510 156.65 509.55 158 509 158C508.45 158 508 160.25 508 163C508 165.75 507.55 168 507 168C506.45 168 506 169.35 506 171C506 172.65 505.55 174 505 174C504.45 174 504 175.35 504 177C504 178.65 503.55 180 503 180C502.45 180 502 180.9 502 182C502 183.1 501.55 184 501 184C500.45 184 500 184.719 500 185.599C500 186.478 498.65 188.459 497 190C495.35 191.541 494 193.326 494 193.966C494 194.606 491.75 197.321 489 200C486.25 202.679 484 205.574 484 206.435C484 207.296 483.296 208 482.435 208C481.574 208 478.679 210.25 476 213C470.275 218.877 466.496 219.587 462.455 215.545C460.037 213.128 459.049 208 461 208C461.55 208 462 206.65 462 205C462 203.35 462.45 202 463 202C463.55 202 464 201.1 464 200C464 198.9 464.45 198 465 198C465.55 198 466 196.65 466 195C466 193.35 466.45 192 467 192C467.55 192 468 191.1 468 190C468 188.9 468.45 188 469 188C469.55 188 470 187.1 470 186C470 184.9 470.45 184 471 184C471.55 184 472 183.199 472 182.221C472 181.242 472.9 179.793 474 179C475.1 178.207 476 176.758 476 175.779C476 174.801 476.45 174 477 174C477.55 174 478 172.65 478 171C478 169.35 478.45 168 479 168C479.55 168 480 167.1 480 166C480 164.9 480.45 164 481 164C481.55 164 482 163.1 482 162C482 160.9 482.45 160 483 160C483.55 160 484 157.75 484 155C484 152.25 483.55 150 483 150C482.45 150 482 149.1 482 148C482 146.667 481.333 146 480 146C478.9 146 478 145.55 478 145C478 144.4 474 144 468 144C462 144 458 144.4 458 145C458 145.55 455.75 146 453 146C448.873 146 448 145.689 448 144.221C448 143.242 448.9 141.793 450 141C451.1 140.207 452 138.758 452 137.779C452 136.801 452.45 136 453 136C453.55 136 454 135.1 454 134C454 132.9 454.45 132 455 132C455.55 132 456 131.1 456 130C456 128.9 456.45 128 457 128C457.55 128 458 126.2 458 124C458 121.8 458.45 120 459 120C459.55 120 460 118.65 460 117C460 115.35 459.55 114 459 114C458.45 114 458 113.1 458 112C458 110.19 457.333 110 451 110C447 110 444 110.429 444 111C444 111.55 443.305 112 442.455 112C440.025 112 436 116.648 436 119.455C436 120.855 435.55 122 435 122C434.417 122 434 125.333 434 130C434 134.667 434.417 138 435 138C435.55 138 436 139.8 436 142C436 144.2 436.45 146 437 146C437.55 146 438 146.707 438 147.571C438 149.592 440.408 152 442.429 152C443.293 152 444 152.45 444 153C444 153.55 445.8 154 448 154C450.2 154 452 154.45 452 155C452 155.55 452.9 156 454 156C455.333 156 456 156.667 456 158C456 159.1 455.55 160 455 160C454.45 160 454 160.9 454 162C454 163.1 453.55 164 453 164C452.45 164 452 164.9 452 166C452 167.1 451.55 168 451 168C450.45 168 450 168.9 450 170C450 171.1 449.55 172 449 172C448.45 172 448 172.9 448 174C448 175.1 447.55 176 447 176C446.45 176 446 176.9 446 178C446 179.1 445.55 180 445 180C444.45 180 444 180.9 444 182C444 183.1 443.55 184 443 184C442.45 184 442 184.9 442 186C442 187.1 441.55 188 441 188C440.45 188 440 189.35 440 191C440 192.65 439.55 194 439 194C438.45 194 438 195.8 438 198C438 200.2 437.55 202 437 202C436.417 202 436 205.333 436 210C436 214.667 436.417 218 437 218C437.55 218 438 219.35 438 221C438 222.65 438.45 224 439 224C439.55 224 440 224.707 440 225.571C440 227.592 442.408 230 444.429 230C445.293 230 446 230.45 446 231C446 231.55 447.35 232 449 232C450.65 232 452 232.45 452 233C452 233.55 454.25 234 457 234C459.75 234 462 233.55 462 233C462 232.45 462.9 232 464 232C465.1 232 466 231.55 466 231C466 230.45 466.704 230 467.565 230C468.426 230 471.321 227.75 474 225C476.679 222.25 479.358 220 479.954 220C481.621 220 494 207.237 494 205.519C494 204.667 494.878 204 496 204C497.852 204 498 204.667 498 213C498 218.333 498.407 222 499 222C499.55 222 500 222.695 500 223.545C500 225.546 504.454 230 506.455 230C507.305 230 508 230.45 508 231C508 231.571 511 232 515 232C519 232 522 231.571 522 231C522 230.45 523.169 230 524.599 230C526.197 230 528.277 228.845 530 227C531.541 225.35 533.332 224 533.98 224C534.627 224 536.886 222.2 539 220C541.114 217.8 543.454 216 544.201 216C544.948 216 546.207 215.1 547 214C547.793 212.9 549.049 212 549.792 212C551.952 212 554 209.358 554 206.571C554 205.157 554.45 204 555 204C555.55 204 556 203.293 556 202.429C556 200.913 558.255 198 559.429 198C559.743 198 560 199.35 560 201C560 202.65 559.55 204 559 204C558.45 204 558 204.9 558 206C558 207.1 557.55 208 557 208C556.444 208 556 210.667 556 214C556 217.333 555.556 220 555 220C554.45 220 554 220.9 554 222C554 223.1 554.45 224 555 224C555.55 224 556 226.045 556 228.545C556 232.038 556.568 233.659 558.455 235.545C559.805 236.895 561.605 238 562.455 238C563.305 238 564 238.45 564 239C564 240.557 572.949 240.194 574.571 238.571C575.357 237.786 576 235.536 576 233.571C576 231.607 576.45 230 577 230C577.55 230 578 228.2 578 226C578 223.8 578.45 222 579 222C579.55 222 580 220.2 580 218C580 215.8 580.45 214 581 214C581.55 214 582 212.65 582 211C582 209.35 582.45 208 583 208C583.55 208 584 207.1 584 206C584 204.9 584.45 204 585 204C585.55 204 586 203.1 586 202C586 200.9 586.45 200 587 200C587.55 200 588 199.1 588 198C588 196.9 588.45 196 589 196C589.55 196 590 195.199 590 194.221C590 193.242 590.9 191.793 592 191C593.1 190.207 594 188.948 594 188.201C594 187.454 595.8 185.114 598 183C600.2 180.886 602 178.663 602 178.06C602 176.383 614.755 164 616.481 164C617.317 164 618 163.55 618 163C618 161.443 626.949 161.806 628.571 163.429C630.194 165.051 630.557 174 629 174C628.45 174 628 175.8 628 178C628 180.2 627.55 182 627 182C626.45 182 626 183.35 626 185C626 186.65 625.55 188 625 188C624.45 188 624 189.35 624 191C624 192.65 623.55 194 623 194C622.45 194 622 195.35 622 197C622 198.65 621.55 200 621 200C620.45 200 620 201.35 620 203C620 204.65 619.55 206 619 206C618.4 206 618 210 618 216C618 222 618.4 226 619 226C619.55 226 620 226.801 620 227.779C620 228.758 620.9 230.207 622 231C623.1 231.793 624 233.038 624 233.766C624 235.591 628.565 240 630.455 240C631.305 240 632 240.45 632 241C632 241.583 635.333 242 640 242C644.667 242 648 241.583 648 241C648 240.45 649.8 240 652 240C654.2 240 656 239.55 656 239C656 238.45 656.9 238 658 238C659.1 238 660 237.55 660 237C660 236.45 661.35 236 663 236C664.65 236 666 235.55 666 235C666 234.45 666.801 234 667.779 234C668.758 234 670.207 233.1 671 232C671.793 230.9 673.143 230 674 230C674.857 230 676.207 229.1 677 228C677.793 226.9 679.02 226 679.727 226C681.407 226 718 189.407 718 187.727C718 187.02 718.9 185.793 720 185C721.1 184.207 722 182.758 722 181.779C722 180.801 722.45 180 723 180C723.55 180 724 179.1 724 178C724 176.9 724.45 176 725 176C725.55 176 726 175.199 726 174.221C726 173.242 726.9 171.793 728 171C729.1 170.207 730 168.758 730 167.779C730 166.801 730.45 166 731 166C731.55 166 732 165.1 732 164C732 162.9 732.45 162 733 162C733.55 162 734 160.65 734 159C734 157.35 734.45 156 735 156C735.55 156 736 155.1 736 154C736 152.9 736.45 152 737 152C737.55 152 738 150.2 738 148C738 145.8 738.45 144 739 144C739.55 144 740 141.75 740 139C740 136.25 740.45 134 741 134C741.638 134 742 125.667 742 111C742 96.333 741.638 88 741 88C740.45 88 740 86.2 740 84C740 81.8 739.55 80 739 80C738.45 80 738 78.65 738 77C738 75.35 737.55 74 737 74C736.45 74 736 72.65 736 71C736 69.35 735.55 68 735 68C734.45 68 734 67.1 734 66C734 64.9 733.55 64 733 64C732.45 64 732 63.1 732 62C732 60.9 731.55 60 731 60C730.45 60 730 59.29 730 58.422C730 57.553 728.2 55.114 726 53C723.8 50.886 722 48.662 722 48.057C722 46.611 711.371 36 709.923 36C709.307 36 707.541 34.65 706 33C704.459 31.35 702.577 30 701.82 30C701.062 30 699.793 29.1 699 28C698.207 26.9 696.758 26 695.779 26C694.801 26 694 25.55 694 25C694 24.45 692.65 24 691 24C689.35 24 688 23.55 688 23C688 22.45 687.1 22 686 22C684.9 22 684 21.55 684 21C684 20.45 682.2 20 680 20C677.8 20 676 19.55 676 19C676 18.45 674.65 18 673 18C671.35 18 670 17.55 670 17C670 16.429 667 16 663 16C659 16 656 15.571 656 15C656 14.364 648 14 634 14C620 14 612 14.364 612 15C612 15.583 608.667 16 604 16C599.333 16 596 16.417 596 17C596 17.556 593.333 18 590 18C586.667 18 584 18.444 584 19C584 19.55 582.2 20 580 20C577.8 20 576 20.45 576 21C576 21.55 574.2 22 572 22C569.8 22 568 22.45 568 23C568 23.55 565.75 24 563 24C560.25 24 558 24.45 558 25C558 25.55 555.75 26 553 26C550.25 26 548 26.45 548 27C548 27.55 545.75 28 543 28C540.25 28 538 28.45 538 29C538 29.55 536.65 30 535 30C533.35 30 532 30.45 532 31C532 31.55 530.65 32 529 32C527.35 32 526 32.45 526 33C526 33.55 524.65 34 523 34C521.35 34 520 34.45 520 35C520 35.55 518.65 36 517 36C515.35 36 514 36.45 514 37C514 37.55 512.2 38 510 38C507.8 38 506 38.45 506 39C506 39.55 504.65 40 503 40C501.35 40 500 40.45 500 41C500 41.55 498.2 42 496 42C493.8 42 492 42.45 492 43C492 43.55 490.2 44 488 44C485.8 44 484 44.45 484 45C484 45.55 482.65 46 481 46C479.35 46 478 46.45 478 47C478 47.55 476.65 48 475 48C473.35 48 472 48.45 472 49C472 49.55 470.2 50 468 50C465.8 50 464 50.45 464 51C464 51.55 462.65 52 461 52C459.35 52 458 52.45 458 53C458 53.55 456.65 54 455 54C453.35 54 452 54.45 452 55C452 55.55 450.2 56 448 56C445.8 56 444 56.45 444 57C444 57.55 441.75 58 439 58C436.25 58 434 58.45 434 59C434 59.55 432.2 60 430 60C427.8 60 426 60.45 426 61C426 61.55 424.2 62 422 62C419.8 62 418 62.45 418 63C418 63.55 416.2 64 414 64C411.8 64 410 64.45 410 65C410 65.55 408.65 66 407 66C405.35 66 404 66.45 404 67C404 67.55 402.2 68 400 68C397.8 68 396 68.45 396 69C396 69.55 394.2 70 392 70C389.8 70 388 70.45 388 71C388 71.55 386.2 72 384 72C381.8 72 380 72.45 380 73C380 73.556 377.333 74 374 74C370.667 74 368 74.444 368 75C368 75.556 365.333 76 362 76C358.667 76 356 76.444 356 77C356 77.556 353.333 78 350 78C346.667 78 344 78.444 344 79C344 79.583 340.667 80 336 80C331.333 80 328 80.417 328 81C328 81.639 319.333 82 304 82H280V79C280 77.35 280.45 76 281 76C281.55 76 282 74.65 282 73C282 71.35 282.45 70 283 70C283.55 70 284 69.1 284 68C284 66.9 284.45 66 285 66C285.55 66 286 65.1 286 64C286 62.9 286.45 62 287 62C287.55 62 288 60.749 288 59.221C288 57.589 288.826 55.847 290 55C291.174 54.153 292 52.411 292 50.779C292 49.251 292.45 48 293 48C293.55 48 294 46.65 294 45C294 43.35 294.45 42 295 42C295.55 42 296 40.65 296 39C296 37.35 296.45 36 297 36C297.55 36 298 34.65 298 33C298 31.35 298.45 30 299 30C299.609 30 300 25.485 300 18.455C300 7.53 299.868 6.777 297.545 4.455C296.195 3.105 294.395 2 293.545 2C292.695 2 292 1.55 292 1C292 0.417 288.667 0 284 0C279.333 0 276 0.417 276 1ZM149.042 3.719C147.965 4.931 147.9 5.467 148.792 5.764C149.456 5.985 150 7.029 150 8.083C150 9.546 150.71 10 153 10C154.65 10 156 9.55 156 9C156 8.45 155.55 8 155 8C154.45 8 154 7.293 154 6.429C154 5.064 151.732 1.93 150.821 2.038C150.645 2.059 149.844 2.815 149.042 3.719ZM138 8C138 9.1 138.45 10 139 10C139.55 10 140 10.9 140 12C140 13.556 140.667 14 143 14C146.745 14 146.955 11.864 143.545 8.455C140.565 5.474 138 5.264 138 8ZM281 10C280.207 11.1 278.758 12 277.779 12C276.801 12 276 12.45 276 13C276 13.55 275.317 14 274.481 14C272.504 14 260 26.504 260 28.481C260 29.317 259.55 30 259 30C258.45 30 258 30.801 258 31.779C258 32.758 257.1 34.207 256 35C254.9 35.793 254 37.242 254 38.221C254 39.199 253.55 40 253 40C252.45 40 252 41.35 252 43C252 44.65 251.55 46 251 46C250.383 46 250 51.178 250 59.533V73.067L246.533 76.533C244.627 78.44 242.827 80 242.533 80C242.24 80 242 76.85 242 73C242 69 241.571 66 241 66C240.45 66 240 64.65 240 63C240 61.35 239.55 60 239 60C238.45 60 238 59.199 238 58.221C238 57.242 237.1 55.793 236 55C234.9 54.207 234 52.758 234 51.779C234 50.74 233.26 50 232.221 50C231.242 50 229.793 49.1 229 48C228.207 46.9 226.758 46 225.779 46C224.801 46 224 45.55 224 45C224 44.45 223.1 44 222 44C220.9 44 220 43.55 220 43C220 42.45 218.65 42 217 42C215.35 42 214 41.55 214 41C214 40.394 209.667 40 203 40C196.333 40 192 40.394 192 41C192 41.55 190.2 42 188 42C185.8 42 184 42.45 184 43C184 43.55 182.65 44 181 44C179.35 44 178 44.45 178 45C178 45.55 177.199 46 176.221 46C175.242 46 173.793 46.9 173 48C172.207 49.1 170.968 50 170.246 50C168.54 50 162 56.54 162 58.246C162 58.968 161.1 60.207 160 61C158.9 61.793 158 63.242 158 64.221C158 65.199 157.55 66 157 66C156.45 66 156 66.9 156 68C156 69.1 155.55 70 155 70C154.45 70 154 71.35 154 73C154 74.65 153.55 76 153 76C152.4 76 152 80 152 86C152 92 152.4 96 153 96C153.55 96 154 97.251 154 98.779C154 100.411 154.826 102.153 156 103C157.1 103.793 158 105.143 158 106C158 106.857 158.9 108.207 160 109C161.1 109.793 162 111.052 162 111.799C162 112.546 163.8 114.886 166 117C168.2 119.114 170 121.454 170 122.201C170 122.948 170.9 124.207 172 125C173.1 125.793 174 127.052 174 127.799C174 128.546 175.8 130.886 178 133C180.2 135.114 182 137.373 182 138.02C182 138.668 183.35 140.459 185 142C186.65 143.541 188 145.341 188 146C188 146.659 189.35 148.459 191 150C192.65 151.541 194 153.423 194 154.18C194 154.938 194.9 156.207 196 157C197.1 157.793 198 159.143 198 160C198 160.857 198.9 162.207 200 163C201.1 163.793 202 165.242 202 166.221C202 167.63 202.832 168 206 168C208.2 168 210 167.55 210 167C210 166.45 211.35 166 213 166C214.65 166 216 165.55 216 165C216 164.45 216.9 164 218 164C219.1 164 220 163.55 220 163C220 162.45 220.9 162 222 162C223.1 162 224 161.55 224 161C224 160.45 225.35 160 227 160C229.667 160 230 159.667 230 157C230 155.35 230.45 154 231 154C231.55 154 232 152.2 232 150C232 147.8 232.45 146 233 146C233.55 146 234 144.65 234 143C234 141.35 234.45 140 235 140C235.55 140 236 138.2 236 136C236 133.8 236.45 132 237 132C237.55 132 238 130.65 238 129C238 127.35 238.45 126 239 126C239.55 126 240 125.1 240 124C240 122.9 240.45 122 241 122C241.55 122 242 121.55 242 121C242 120.45 239.75 120 237 120C234.25 120 232 120.45 232 121C232 121.55 230.2 122 228 122C225.8 122 224 122.45 224 123C224 123.55 222.2 124 220 124C217.8 124 216 123.55 216 123C216 122.45 213.849 122 211.221 122C207.589 122 206.096 121.52 205 120C204.207 118.9 202.968 118 202.246 118C201.524 118 199.373 116.44 197.467 114.533C195.56 112.627 194 110.476 194 109.754C194 109.032 193.1 107.793 192 107C190.826 106.153 190 104.411 190 102.779C190 101.251 189.55 100 189 100C187.411 100 187.784 89.073 189.429 87.429C192.188 84.669 194 85.688 194 90C194 92.2 194.45 94 195 94C195.55 94 196 95.133 196 96.519C196 98.284 197.938 100.975 202.481 105.519L208.963 112H219.481C225.827 112 230 111.603 230 111C230 110.45 230.9 110 232 110C233.1 110 234 109.55 234 109C234 108.45 234.9 108 236 108C237.1 108 238 107.55 238 107C238 106.45 238.9 106 240 106C241.1 106 242 105.55 242 105C242 104.45 242.695 104 243.545 104C245.975 104 250 99.352 250 96.545C250 95.145 250.45 94 251 94C251.55 94 252 93.1 252 92C252 90.9 252.45 90 253 90C253.55 90 254 89.1 254 88C254 86.9 254.45 86 255 86C255.55 86 256 85.1 256 84C256 82.9 256.45 82 257 82C257.55 82 258 81.1 258 80C258 78.9 258.45 78 259 78C259.55 78 260 77.1 260 76C260 74.9 260.45 74 261 74C261.55 74 262 73.1 262 72C262 70.9 262.45 70 263 70C263.55 70 264 69.1 264 68C264 66.9 264.45 66 265 66C265.55 66 266 65.1 266 64C266 62.9 266.45 62 267 62C267.55 62 268 61.1 268 60C268 58.9 268.45 58 269 58C269.55 58 270 57.1 270 56C270 54.9 270.45 54 271 54C271.55 54 272 53.1 272 52C272 50.9 272.45 50 273 50C273.55 50 274 49.1 274 48C274 46.9 274.45 46 275 46C275.55 46 276 45.1 276 44C276 42.9 276.45 42 277 42C277.55 42 278 41.1 278 40C278 38.9 278.45 38 279 38C279.55 38 280 37.1 280 36C280 34.9 280.45 34 281 34C281.55 34 282 33.1 282 32C282 30.9 282.45 30 283 30C283.55 30 284 29.1 284 28C284 26.9 284.45 26 285 26C285.55 26 286 25.1 286 24C286 22.9 286.45 22 287 22C287.55 22 288 20.65 288 19C288 17.35 288.45 16 289 16C289.55 16 290 14.2 290 12C290 8.039 289.963 8 286.221 8C283.589 8 282.004 8.607 281 10ZM130 16C130 17.333 130.667 18 132 18C134.369 18 134.509 17.366 132.571 15.429C130.634 13.491 130 13.631 130 16ZM91.208 27.541C90.131 28.762 90.332 29.423 92.412 31.503C93.785 32.876 95.605 34 96.455 34C97.305 34 98 34.45 98 35C98 35.55 99.35 36 101 36C103.333 36 104 35.556 104 34C104 32.667 103.333 32 102 32C100.9 32 100 31.55 100 31C100 30.45 99.199 30 98.221 30C97.242 30 95.793 29.1 95 28C93.303 25.645 92.921 25.599 91.208 27.541ZM74 46.779C74 47.208 74.9 48.207 76 49C77.1 49.793 78 51.049 78 51.792C78 53.134 80.335 56 81.429 56C81.743 56 82 55.1 82 54C82 52.9 81.55 52 81 52C80.45 52 80 51.293 80 50.429C80 49.564 79.357 48.214 78.571 47.429C77.052 45.909 74 45.476 74 46.779ZM74 65C74 66.65 74.45 68 75 68C75.55 68 76 68.9 76 70C76 71.166 76.667 72 77.599 72C78.478 72 80.459 73.35 82 75C85.006 78.218 88 78.957 88 76.481C88 75.12 75.786 62 74.519 62C74.233 62 74 63.35 74 65ZM524 67C524 67.55 523.1 68 522 68C520.9 68 520 68.45 520 69C520 69.55 519.199 70 518.221 70C517.242 70 515.793 70.9 515 72C514.207 73.1 512.758 74 511.779 74C510.801 74 510 74.45 510 75C510 75.55 509.1 76 508 76C506.333 76 506 76.667 506 80C506 82.2 506.45 84 507 84C507.55 84 508 84.45 508 85C508 85.571 505 86 501 86H494V91C494 93.75 494.45 96 495 96C495.55 96 496 96.707 496 97.571C496 100.584 498.695 102 504.429 102H510V106C510 109.033 510.395 110 511.633 110C512.531 110 514.106 110.969 515.133 112.153L517 114.306L518.867 112.153C521.235 109.423 524 109.34 524 112C524 113.81 524.667 114 531 114C535 114 538 114.429 538 115C538 116.951 543.128 115.963 545.545 113.545C548.632 110.458 548.617 110 545.429 110C543.112 110 540 108.035 540 106.571C540 106.257 541.8 106 544 106H548V102C548 99.8 548.45 98 549 98C550.485 98 550.21 95.067 548.571 93.429C546.956 91.813 540 91.466 540 93C540 93.55 538.65 94 537 94C535.35 94 534 94.45 534 95C534 96.506 531.058 96.2 529.376 94.519C528.068 93.211 528.306 92.627 531.414 89.519C533.35 87.584 535.623 86 536.467 86C537.31 86 538 85.55 538 85C538 84.45 538.707 84 539.571 84C540.436 84 541.818 83.325 542.643 82.5C543.976 81.167 543.976 80.833 542.643 79.5C540.594 77.452 538.717 77.618 537 80C536.207 81.1 534.971 82 534.253 82C532.432 82 524 90.613 524 92.474C524 93.333 523.126 94 522 94C520.863 94 520 93.333 520 92.455C520 90.454 515.546 86 513.545 86C511.225 86 511.566 80.755 514 79C515.1 78.207 516 76.758 516 75.779C516 74.667 516.749 74 518 74C519.1 74 520 73.55 520 73C520 72.45 520.9 72 522 72C523.1 72 524 71.55 524 71C524 70.45 524.9 70 526 70C528.703 70 528.527 70.706 525 74C523.35 75.541 522 77.522 522 78.401C522 79.281 521.55 80 521 80C520.45 80 520 80.9 520 82C520 83.1 519.55 84 519 84C518.45 84 518 84.9 518 86C518 87.1 518.257 88 518.571 88C519.586 88 522 85.178 522 83.993C522 83.361 523.8 81.114 526 79C528.2 76.886 530 74.447 530 73.578C530 72.667 530.845 72 532 72C533.1 72 534 72.45 534 73C534 73.55 534.9 74 536 74C537.1 74 538 73.743 538 73.429C538 72.255 535.087 70 533.571 70C532.707 70 532 69.55 532 69C532 68.45 531.1 68 530 68C528.9 68 528 67.55 528 67C528 66.45 527.1 66 526 66C524.9 66 524 66.45 524 67ZM108 69C108 69.55 108.45 70 109 70C109.55 70 110 69.55 110 69C110 68.45 109.55 68 109 68C108.45 68 108 68.45 108 69ZM92 75C92 75.55 92.45 76 93 76C93.55 76 94 75.55 94 75C94 74.45 93.55 74 93 74C92.45 74 92 74.45 92 75ZM90 83C90 83.55 90.45 84 91 84C91.55 84 92 83.55 92 83C92 82.45 91.55 82 91 82C90.45 82 90 82.45 90 83ZM545.25 87.496C543.594 89.377 543.674 90 545.571 90C547.087 90 550 87.745 550 86.571C550 85.427 546.466 86.114 545.25 87.496ZM502 90.571C502 92.244 505.293 94 508.429 94C510.393 94 512 94.45 512 95C512 95.55 512.707 96 513.571 96C515.592 96 518 98.408 518 100.429C518 101.293 518.45 102 519 102C519.55 102 520 102.9 520 104C520 105.1 520.45 106 521 106C521.55 106 522 104.41 522 102.467C522 98.087 516.494 92 512.533 92C511.14 92 510 91.55 510 91C510 90.45 508.2 90 506 90C503.8 90 502 90.257 502 90.571ZM70 97C70 97.55 70.9 98 72 98C73.1 98 74 98.45 74 99C74 99.55 75.145 100 76.545 100C79.352 100 84 104.025 84 106.455C84 107.505 83.039 108 81 108C78.667 108 78 108.444 78 110C78 111.733 78.667 112 83 112H88V107.429C88 102.71 86.385 100 83.571 100C82.707 100 82 99.55 82 99C82 98.45 80.65 98 79 98C77.35 98 76 97.55 76 97C76 96.45 74.65 96 73 96C71.35 96 70 96.45 70 97ZM540 97C540 97.55 539.1 98 538 98C536.9 98 536 98.45 536 99C536 99.55 538.25 100 541 100C545.333 100 546 99.733 546 98C546 96.444 545.333 96 543 96C541.35 96 540 96.45 540 97ZM524 100C524 101.333 524.667 102 526 102C527.1 102 528 102.45 528 103C528 103.55 529.35 104 531 104C532.65 104 534 103.55 534 103C534 102.45 533.199 102 532.221 102C531.242 102 529.793 101.1 529 100C528.207 98.9 526.758 98 525.779 98C524.667 98 524 98.749 524 100ZM92 109.545C92 111.976 92.772 113.862 94.455 115.545C97.431 118.521 98 118.594 98 116C98 114.9 97.55 114 97 114C96.45 114 96 113.1 96 112C96 110.9 95.55 110 95 110C94.45 110 94 109.1 94 108C94 106.9 93.55 106 93 106C92.45 106 92 107.595 92 109.545ZM447.25 121.54C445.462 123.412 444 125.631 444 126.472C444 127.312 443.55 128 443 128C442.45 128 442 130.25 442 133C442 137.333 442.267 138 444 138C445.556 138 446 137.333 446 135C446 133.35 446.45 132 447 132C447.55 132 448 131.1 448 130C448 128.9 448.45 128 449 128C449.55 128 450 127.1 450 126C450 124.9 450.45 124 451 124C451.55 124 452 122.65 452 121C452 117.225 451.294 117.306 447.25 121.54ZM80 155C80 155.556 77.333 156 74 156C70.667 156 68 156.444 68 157C68 157.55 67.1 158 66 158C64.9 158 64 158.45 64 159C64 159.55 63.1 160 62 160C60.9 160 60 160.45 60 161C60 161.55 58.65 162 57 162C55.35 162 54 162.45 54 163C54 163.55 53.1 164 52 164C50.9 164 50 164.45 50 165C50 165.55 49.1 166 48 166C46.9 166 46 166.45 46 167C46 167.55 45.281 168 44.401 168C43.522 168 41.541 169.35 40 171C38.459 172.65 36.696 174 36.083 174C34.391 174 20 188.75 20 190.484C20 191.318 19.55 192 19 192C18.45 192 18 192.9 18 194C18 195.1 17.55 196 17 196C16.45 196 16 196.9 16 198C16 199.1 15.55 200 15 200C14.45 200 14 200.9 14 202C14 203.1 13.55 204 13 204C12.45 204 12 205.8 12 208C12 210.2 11.55 212 11 212C10.389 212 10 216.667 10 224C10 231.333 10.389 236 11 236C11.55 236 12 237.35 12 239C12 240.65 12.45 242 13 242C13.55 242 14 243.35 14 245C14 246.65 14.45 248 15 248C15.55 248 16 248.9 16 250C16 251.1 16.45 252 17 252C17.55 252 18 252.9 18 254C18 255.1 18.45 256 19 256C19.55 256 20 256.9 20 258C20 259.333 20.667 260 22 260C23.122 260 24 260.667 24 261.519C24 263.496 36.504 276 38.481 276C39.317 276 40 276.45 40 277C40 277.55 40.9 278 42 278C43.1 278 44 278.45 44 279C44 279.55 44.9 280 46 280C47.1 280 48 280.45 48 281C48 281.55 48.9 282 50 282C51.1 282 52 282.45 52 283C52 283.55 53.35 284 55 284C56.65 284 58 284.45 58 285C58 285.55 59.35 286 61 286C62.65 286 64 286.45 64 287C64 287.55 66.25 288 69 288C71.75 288 74 288.45 74 289C74 289.63 80.667 290 92 290C103.333 290 110 289.63 110 289C110 288.45 111.8 288 114 288C116.2 288 118 287.55 118 287C118 286.45 119.8 286 122 286C124.2 286 126 285.55 126 285C126 284.45 127.35 284 129 284C130.65 284 132 283.55 132 283C132 282.45 132.9 282 134 282C135.1 282 136 281.55 136 281C136 280.45 136.9 280 138 280C139.1 280 140 279.55 140 279C140 278.45 140.9 278 142 278C143.1 278 144 277.55 144 277C144 276.45 144.801 276 145.779 276C146.758 276 148.207 275.1 149 274C149.793 272.9 151.062 272 151.82 272C152.577 272 154.459 270.65 156 269C157.541 267.35 159.305 266 159.92 266C161.376 266 174 253.376 174 251.92C174 251.305 175.35 249.541 177 248C178.65 246.459 180 244.478 180 243.599C180 242.719 180.45 242 181 242C181.55 242 182 240.65 182 239C182 237.35 182.45 236 183 236C183.55 236 184 235.1 184 234C184 232.9 184.45 232 185 232C185.55 232 186 230.2 186 228C186 225.8 186.45 224 187 224C187.615 224 188 219 188 211C188 203 187.615 198 187 198C186.45 198 186 196.65 186 195C186 193.35 185.55 192 185 192C184.45 192 184 190.65 184 189C184 186.167 183.778 186 180 186C177.8 186 176 186.45 176 187C176 187.55 175.1 188 174 188C172.9 188 172 188.45 172 189C172 189.55 170.65 190 169 190C167.35 190 166 190.45 166 191C166 191.55 165.1 192 164 192C162.9 192 162 192.45 162 193C162 193.55 160.65 194 159 194C156.067 194 156 194.111 156 199C156 201.75 155.55 204 155 204C154.45 204 154 205.8 154 208C154 210.2 153.55 212 153 212C152.45 212 152 212.9 152 214C152 215.1 151.55 216 151 216C150.45 216 150 217.35 150 219C150 220.65 149.55 222 149 222C148.45 222 148 222.683 148 223.519C148 225.496 135.496 238 133.519 238C132.683 238 132 238.45 132 239C132 239.55 131.1 240 130 240C128.9 240 128 240.45 128 241C128 241.55 127.1 242 126 242C124.9 242 124 242.45 124 243C124 243.619 118.667 244 110 244C101.333 244 96 243.619 96 243C96 242.45 95.1 242 94 242C92.9 242 92 241.55 92 241C92 240.45 91.313 240 90.474 240C88.489 240 80 231.511 80 229.526C80 228.687 79.55 228 79 228C78.45 228 78 227.1 78 226C78 224.9 77.55 224 77 224C76.45 224 76 222.2 76 220C76 217.8 75.55 216 75 216C74.45 216 74 214.2 74 212C74 209.8 74.45 208 75 208C75.55 208 76 206.2 76 204C76 201.8 76.45 200 77 200C77.55 200 78 199.1 78 198C78 196.9 78.45 196 79 196C79.55 196 80 195.305 80 194.455C80 192.454 84.454 188 86.455 188C87.305 188 88 187.55 88 187C88 186.45 89.35 186 91 186C92.65 186 94 185.55 94 185C94 184.429 97 184 101 184C105 184 108 184.429 108 185C108 185.55 109.14 186 110.533 186C112.091 186 114.402 187.336 116.533 189.467C119.732 192.665 120 193.406 120 199.038C120 202.996 119.498 205.645 118.571 206.571C116.36 208.783 116 208.347 116 203.455C116 199.962 115.432 198.341 113.545 196.455C112.195 195.105 110.395 194 109.545 194C108.695 194 108 193.55 108 193C108 192.409 104.407 192 99.221 192C91.589 192 90.253 192.261 89 194C88.207 195.1 86.758 196 85.779 196C84.667 196 84 196.749 84 198C84 199.1 83.55 200 83 200C82.429 200 82 203 82 207C82 211 82.429 214 83 214C83.55 214 84 215.133 84 216.519C84 220.036 95.964 232 99.481 232C100.867 232 102 232.45 102 233C102 233.6 106 234 112 234C118 234 122 233.6 122 233C122 232.45 122.9 232 124 232C125.1 232 126 231.55 126 231C126 230.45 126.683 230 127.519 230C128.354 230 131.954 227.083 135.519 223.519C139.083 219.954 142 216.354 142 215.519C142 214.683 142.45 214 143 214C143.55 214 144 212.65 144 211C144 209.35 144.45 208 145 208C145.55 208 146 206.65 146 205C146 203.35 146.45 202 147 202C147.55 202 148 199.75 148 197C148 194.25 147.55 192 147 192C146.45 192 146 191.199 146 190.221C146 189.242 145.1 187.793 144 187C142.9 186.207 142 184.758 142 183.779C142 182.667 141.251 182 140 182C138.848 182 138 181.333 138 180.429C138 178.408 135.592 176 133.571 176C132.667 176 132 175.152 132 174C132 172.834 131.333 172 130.401 172C129.522 172 127.541 170.65 126 169C124.459 167.35 122.478 166 121.599 166C120.719 166 120 165.55 120 165C120 164.45 119.1 164 118 164C116.9 164 116 163.55 116 163C116 162.45 114.65 162 113 162C111.35 162 110 161.55 110 161C110 160.45 108.65 160 107 160C105.35 160 104 159.55 104 159C104 158.45 103.1 158 102 158C100.9 158 100 157.55 100 157C100 156.45 98.65 156 97 156C95.35 156 94 155.55 94 155C94 154.429 91 154 87 154C83 154 80 154.429 80 155ZM381 156C380.207 157.1 378.758 158 377.779 158C376.801 158 376 158.45 376 159C376 159.55 375.1 160 374 160C372.834 160 372 160.667 372 161.599C372 162.478 370.65 164.459 369 166C367.35 167.541 366 169.522 366 170.401C366 171.281 365.55 172 365 172C364.45 172 364 172.801 364 173.779C364 174.758 363.1 176.207 362 177C360.9 177.793 360 179.242 360 180.221C360 181.199 359.55 182 359 182C358.45 182 358 182.45 358 183C358 183.55 359.8 184 362 184C364.2 184 366 183.55 366 183C366 182.45 366.9 182 368 182C369.1 182 370 181.55 370 181C370 180.45 370.801 180 371.779 180C372.758 180 374.207 179.1 375 178C375.793 176.9 377.029 176 377.747 176C380.155 176 388 167.221 388 164.526C388 163.137 388.45 162 389 162C390.518 162 390.195 157.052 388.571 155.429C386.521 153.379 382.68 153.669 381 156ZM124 196C124 197.1 123.55 198 123 198C122.45 198 122 199.8 122 202C122 204.2 122.269 206 122.599 206C122.928 206 124.459 204.65 126 203C127.541 201.35 129.522 200 130.401 200C131.281 200 132 199.743 132 199.429C132 198.255 129.087 196 127.571 196C126.707 196 126 195.55 126 195C126 194.45 125.55 194 125 194C124.45 194 124 194.9 124 196ZM136 203C136 203.55 135.1 204 134 204C132.9 204 132 204.45 132 205C132 205.55 131.293 206 130.429 206C129.564 206 128.214 206.643 127.429 207.429C125.79 209.067 125.515 212 127 212C127.55 212 128 211.55 128 211C128 210.45 129.8 210 132 210C134.2 210 136 210.245 136 210.545C136 210.845 134.895 212.195 133.545 213.545C131.659 215.432 130.038 216 126.545 216C124.045 216 122 216.45 122 217C122 217.55 121.1 218 120 218C118.9 218 118 217.55 118 217C118 216.45 118.45 216 119 216C119.55 216 120 215.55 120 215C120 214.45 119.1 214 118 214C116.667 214 116 213.333 116 212C116 209.406 115.431 209.479 112.455 212.455C109.97 214.94 109.167 218 111 218C111.55 218 112 218.69 112 219.533C112 220.377 113.56 222.627 115.467 224.533C119.578 228.644 124.631 229.287 127 226C127.793 224.9 129.049 224 129.792 224C131.533 224 134 221.533 134 219.792C134 219.049 134.9 217.793 136 217C137.1 216.207 138 214.857 138 214C138 213.143 138.9 211.793 140 211C141.1 210.207 142 208.758 142 207.779C142 206.801 142.45 206 143 206C143.55 206 144 205.55 144 205C144 204.45 143.1 204 142 204C140.667 204 140 204.667 140 206C140 207.1 139.55 208 139 208C138.45 208 138 206.65 138 205C138 203.35 137.55 202 137 202C136.45 202 136 202.45 136 203ZM243 254C242.207 255.1 240.758 256 239.779 256C238.801 256 238 256.45 238 257C238 257.55 237.1 258 236 258C234.333 258 234 258.667 234 262C234 265.333 234.333 266 236 266C237.1 266 238 265.55 238 265C238 264.45 239.35 264 241 264C243.333 264 244 263.556 244 262C244 260.9 244.45 260 245 260C245.55 260 246 259.137 246 258.083C246 257.029 246.558 255.981 247.241 255.753C248.144 255.452 248.027 254.884 246.813 253.67C244.727 251.584 244.742 251.583 243 254ZM300 277C300 278.65 299.55 280 299 280C298.385 280 298 285 298 293C298 305.333 298.103 306 300 306C301.833 306 302 305.333 302 298C302 293.333 302.417 290 303 290C303.55 290 304 291.35 304 293C304 294.65 304.45 296 305 296C305.55 296 306 296.9 306 298C306 299.1 306.45 300 307 300C307.55 300 308 300.9 308 302C308 303.1 308.45 304 309 304C309.55 304 310 304.9 310 306C310 308.594 310.569 308.521 313.545 305.545C314.895 304.195 316 301.945 316 300.545C316 299.145 316.45 298 317 298C317.55 298 318 297.1 318 296C318 294.9 318.45 294 319 294C319.55 294 320 292.65 320 291C320 289.35 320.45 288 321 288C321.55 288 322 287.1 322 286C322 284.9 322.45 284 323 284C323.597 284 324 287.857 324 293.571C324 300.533 324.389 303.532 325.429 304.571C326.214 305.357 327.114 306 327.429 306C327.743 306 328 299.443 328 291.429C328 280.133 327.679 276.536 326.571 275.429C324.178 273.035 322 273.679 322 276.779C322 278.411 321.174 280.153 320 281C318.826 281.847 318 283.589 318 285.221C318 286.749 317.55 288 317 288C316.45 288 316 288.9 316 290C316 291.1 315.55 292 315 292C314.45 292 314 292.9 314 294C314 295.1 313.743 296 313.429 296C312.255 296 310 293.087 310 291.571C310 290.707 309.55 290 309 290C308.45 290 308 288.65 308 287C308 285.35 307.55 284 307 284C306.45 284 306 283.1 306 282C306 280.9 305.55 280 305 280C304.45 280 304 278.65 304 277C304 274.667 303.556 274 302 274C300.444 274 300 274.667 300 277ZM343.25 275.496C341.352 277.652 341.507 304.65 343.429 306.571C345.051 308.194 354 308.557 354 307C354 306.45 355.35 306 357 306C359.333 306 360 305.556 360 304C360 302.222 359.333 302 354 302H348V297V292H353C357.333 292 358 291.733 358 290C358 288.267 357.333 288 353 288H348V283V278H354C359.333 278 360 277.778 360 276C360 274.169 359.346 274.003 352.25 274.038C346.849 274.065 344.121 274.506 343.25 275.496ZM374 290C374 305.333 374.083 306 376 306C377.81 306 378 305.333 378 299V292H385H392V297.571C392 303.305 393.416 306 396.429 306C397.792 306 398 303.879 398 290C398 276.121 397.792 274 396.429 274C393.416 274 392 276.695 392 282.429C392 287.65 390.912 289.597 389.583 286.75C389.117 285.75 388.883 285.75 388.417 286.75C387.619 288.459 381.188 288.331 379.429 286.571C378.532 285.675 378 283.067 378 279.571C378 274.667 377.761 274 376 274C374.083 274 374 274.667 374 290ZM412 290C412 303.879 412.208 306 413.571 306C416.989 306 418 303.391 418 294.571C418 289.857 418.257 286 418.571 286C419.594 286 422 288.826 422 290.027C422 290.671 423.35 292.459 425 294C426.65 295.541 428 297.312 428 297.935C428 299.621 434.697 306 436.467 306C437.781 306 438 303.71 438 290C438 274.667 437.917 274 436 274C434.121 274 434 274.667 434 285C434 291.05 433.755 296 433.455 296C432.338 296 428 291.042 428 289.766C428 289.038 427.1 287.793 426 287C424.9 286.207 424 284.938 424 284.18C424 283.423 422.65 281.541 421 280C419.35 278.459 418 276.478 418 275.599C418 274.489 417.082 274 415 274H412V290ZM452 290V306H460C464.667 306 468 305.583 468 305C468 304.45 468.695 304 469.545 304C471.546 304 476 299.546 476 297.545C476 296.695 476.45 296 477 296C477.565 296 478 293.158 478 289.474C478 283.078 477.911 282.858 473.526 278.474L469.053 274H460.526H452V290ZM490 290C490 305.333 490.083 306 492 306C493.778 306 494 305.333 494 300C494 296.667 494.444 294 495 294C495.6 294 496 290 496 284V274H493H490V290ZM536 276C536 277.1 535.55 278 535 278C534.45 278 534 279.35 534 281C534 282.65 533.55 284 533 284C532.45 284 532 284.9 532 286C532 287.1 531.55 288 531 288C530.45 288 530 288.9 530 290C530 291.1 529.55 292 529 292C528.45 292 528 292.9 528 294C528 295.1 527.55 296 527 296C526.45 296 526 296.9 526 298C526 299.1 525.55 300 525 300C524.45 300 524 301.35 524 303C524 305.061 524.492 306 525.571 306C527.403 306 530 303.654 530 302C530 299.412 532.976 298 538.429 298C542.787 298 544 298.336 544 299.545C544 301.546 548.454 306 550.455 306C551.505 306 552 305.039 552 303C552 301.35 551.55 300 551 300C550.45 300 550 299.1 550 298C550 296.9 549.55 296 549 296C548.45 296 548 294.65 548 293C548 291.35 547.55 290 547 290C546.45 290 546 289.1 546 288C546 286.9 545.55 286 545 286C544.45 286 544 284.65 544 283C544 281.35 543.55 280 543 280C542.45 280 542 278.65 542 277C542 274.333 541.667 274 539 274C536.667 274 536 274.444 536 276ZM562 290C562 303.879 562.208 306 563.571 306C566.971 306 569.511 300.872 566.75 299.583C565.75 299.117 565.75 298.883 566.75 298.417C567.438 298.096 568 296.521 568 294.917C568 293.313 568.245 292 568.545 292C569.544 292 574 296.892 574 297.988C574 299.634 580.727 306 582.467 306C584.666 306 584.358 302.7 582 301C580.9 300.207 580 298.923 580 298.147C580 297.37 579.031 295.894 577.847 294.867L575.694 293L577.847 291.133C579.031 290.106 580 288.531 580 287.633C580 286.735 580.45 286 581 286C581.55 286 582 284.65 582 283C582 281.35 581.55 280 581 280C580.45 280 580 279.1 580 278C580 276.667 579.333 276 578 276C576.9 276 576 275.55 576 275C576 274.429 573 274 569 274H562V290ZM594 276C594 277.667 594.667 278 598 278H602V290.571C602 300.413 602.326 303.469 603.5 304.643C604.833 305.976 605.167 305.976 606.5 304.643C608.209 302.934 608.641 292 607 292C606.45 292 606 291.1 606 290C606 288.9 606.45 288 607 288C607.55 288 608 285.75 608 283V278H612C615.333 278 616 277.667 616 276C616 274.121 615.333 274 605 274C594.667 274 594 274.121 594 276ZM629.25 275.496C628.372 276.493 628 281.248 628 291.458V306H631H634V291.429C634 280.133 633.679 276.536 632.571 275.429C630.851 273.708 630.823 273.709 629.25 275.496ZM652 275C652 275.55 651.1 276 650 276C648.667 276 648 276.667 648 278C648 279.1 647.55 280 647 280C646.45 280 646 281.14 646 282.533C646 285.35 651.947 292 654.467 292C655.31 292 656 292.45 656 293C656 293.55 657.35 294 659 294C661.556 294 662 294.381 662 296.571C662 300.365 659.763 302 654.571 302C650.667 302 650 301.708 650 300C650 297.631 649.366 297.491 647.429 299.429C643.741 303.117 647.051 306 654.974 306C660.135 306 661.474 305.616 663.545 303.545C664.895 302.195 666 300.433 666 299.629C666 298.825 666.563 297.904 667.25 297.583C668.25 297.117 668.25 296.883 667.25 296.417C666.563 296.096 666 295.175 666 294.371C666 292.011 661.307 288 658.545 288C657.145 288 656 287.55 656 287C656 286.45 655.1 286 654 286C651.577 286 651.199 281.658 653.429 279.429C655.052 277.805 660 277.482 660 279C660 279.55 660.9 280 662 280C664.341 280 664.653 277.51 662.571 275.429C660.949 273.806 652 273.443 652 275ZM676 276C676 277.667 676.667 278 680 278H684V291C684 302.152 684.223 304 685.571 304C689.238 304 690 301.517 690 289.571V278H694C697.333 278 698 277.667 698 276C698 274.121 697.333 274 687 274C676.667 274 676 274.121 676 276ZM457.25 279.496C456.419 280.44 456 284.448 456 291.458V302H460.533C464.373 302 465.597 301.469 468.533 298.533C471.729 295.338 472 294.591 472 288.988C472 281.118 469.362 277.98 462.795 278.038C460.382 278.059 457.952 278.698 457.25 279.496ZM566 284C566 287.92 566.071 288 569.571 288C573.786 288 576 286.13 576 282.571C576 280.152 575.704 280 571 280H566V284ZM240 285.779C240 286.758 240.9 288.207 242 289C243.1 289.793 244 291.143 244 292C244 292.857 244.9 294.207 246 295C247.393 296.004 248 297.589 248 300.221C248 303.753 248.196 304 251 304C252.65 304 254 303.55 254 303C254 302.45 255.35 302 257 302C258.65 302 260 301.55 260 301C260 300.45 260.9 300 262 300C264.341 300 264.653 297.51 262.571 295.429C260.933 293.79 258 293.515 258 295C258 295.55 256.2 296 254 296C251.8 296 250 295.55 250 295C250 294.45 250.45 294 251 294C251.55 294 252 293.1 252 292C252 290.9 252.45 290 253 290C253.55 290 254 289.55 254 289C254 288.45 252.65 288 251 288C249.35 288 248 287.55 248 287C248 286.45 247.1 286 246 286C244.9 286 244 285.55 244 285C244 284.45 243.1 284 242 284C240.749 284 240 284.667 240 285.779ZM536 287C536 288.65 535.55 290 535 290C534.45 290 534 290.9 534 292C534 293.667 534.667 294 538 294C541.333 294 542 293.667 542 292C542 290.9 541.55 290 541 290C540.45 290 540 288.65 540 287C540 284.667 539.556 284 538 284C536.444 284 536 284.667 536 287ZM219.149 291.604C217.327 293.665 218.5 294.643 220.452 292.69C221.304 291.839 222 290.886 222 290.571C222 289.521 220.515 290.059 219.149 291.604ZM231 294C229.511 296.066 226 296.768 226 295C226 294.45 225.1 294 224 294C222.457 294 222 294.667 222 296.917C222 298.521 221.438 300.096 220.75 300.417C219.75 300.883 219.75 301.117 220.75 301.583C221.438 301.904 222 303.029 222 304.083C222 305.333 222.696 306 224 306C225.1 306 226 306.45 226 307C226 307.55 228.25 308 231 308C233.75 308 236 307.55 236 307C236 306.45 236.707 306 237.571 306C239.558 306 242 303.604 242 301.655C242 300.836 242.55 299.983 243.222 299.759C244.003 299.499 243.478 298.387 241.767 296.676C239.097 294.006 236 293.106 236 295C236 295.55 235.55 296 235 296C234.45 296 234 295.1 234 294C234 292.9 233.649 292 233.221 292C232.792 292 231.793 292.9 231 294ZM190 296.571C190 296.886 190.643 297.786 191.429 298.571C193.052 300.195 198 300.518 198 299C198 298.45 197.1 298 196 298C194.9 298 194 297.55 194 297C194 296.45 193.1 296 192 296C190.9 296 190 296.257 190 296.571ZM218 297C218 297.55 218.45 298 219 298C219.55 298 220 297.55 220 297C220 296.45 219.55 296 219 296C218.45 296 218 296.45 218 297ZM202 305C202 305.55 199.75 306 197 306C194.25 306 192 306.257 192 306.571C192 307.923 195.029 310 197 310C198.179 310 199.859 310.716 200.734 311.591C202.062 312.919 202.097 313.322 200.944 314.034C199.836 314.72 200 315.266 201.782 316.811C203.002 317.869 204 319.469 204 320.367C204 321.265 204.45 322 205 322C205.55 322 206 322.9 206 324C206 325.1 206.45 326 207 326C207.55 326 208 326.707 208 327.571C208 329.087 210.255 332 211.429 332C211.743 332 212 330.65 212 329C212 327.35 212.45 326 213 326C213.55 326 214 325.1 214 324C214 322.9 214.45 322 215 322C215.55 322 216 323.35 216 325C216 326.65 216.45 328 217 328C217.55 328 218 328.9 218 330C218 331.1 218.45 332 219 332C219.55 332 220 333.35 220 335C220 336.65 220.45 338 221 338C221.55 338 222 337.55 222 337C222 336.45 222.9 336 224 336C225.1 336 226 336.45 226 337C226 337.55 226.9 338 228 338C229.1 338 230 338.45 230 339C230 339.55 230.9 340 232 340C233.1 340 234 340.45 234 341C234 341.55 234.45 342 235 342C235.55 342 236 341.1 236 340C236 338.9 235.55 338 235 338C234.45 338 234 337.1 234 336C234 334.9 233.55 334 233 334C232.45 334 232 333.199 232 332.221C232 331.242 231.1 329.793 230 329C228.9 328.207 228 326.962 228 326.234C228 323.988 223.231 320 220.545 320C218.898 320 218 319.446 218 318.429C218 317.564 217.308 316.165 216.462 315.319C215.078 313.935 214.741 313.993 213.095 315.891C210.916 318.403 210 318.562 210 316.429C210 314.408 207.592 312 205.571 312C204.707 312 204 311.55 204 311C204 310.45 205.35 310 207 310C208.65 310 210 309.743 210 309.429C210 308.255 207.087 306 205.571 306C204.707 306 204 305.55 204 305C204 304.45 203.55 304 203 304C202.45 304 202 304.45 202 305ZM243 308C242.207 309.1 240.758 310 239.779 310C238.801 310 238 310.45 238 311C238 311.55 237.1 312 236 312C234.9 312 234 312.45 234 313C234 313.55 232.65 314 231 314C228.667 314 228 314.444 228 316C228 317.667 228.667 318 232 318C234.2 318 236 317.55 236 317C236 316.45 236.9 316 238 316C239.333 316 240 315.333 240 314C240 312.848 240.667 312 241.571 312C242.436 312 243.786 311.357 244.571 310.571C246.091 309.052 246.524 306 245.221 306C244.792 306 243.793 306.9 243 308ZM245.25 311.496C243.457 313.532 243.704 315.345 246 317C247.1 317.793 248 319.242 248 320.221C248 321.5 248.782 322 250.779 322C252.411 322 254.153 322.826 255 324C256.801 326.499 260 326.64 260 324.221C260 323.242 259.1 321.793 258 321C256.9 320.207 256 318.968 256 318.246C256 316.535 249.446 309.989 247.783 310.038C247.077 310.059 245.938 310.715 245.25 311.496ZM220 315C220 315.55 220.45 316 221 316C221.55 316 222 315.55 222 315C222 314.45 221.55 314 221 314C220.45 314 220 314.45 220 315ZM235.042 321.719C233.965 322.931 233.9 323.467 234.792 323.764C235.456 323.985 236 325.479 236 327.083C236 328.688 236.45 330 237 330C237.55 330 238 330.9 238 332C238 333.1 238.45 334 239 334C239.55 334 240 334.9 240 336C240 337.333 240.667 338 242 338C243.796 338 244 337.333 244 331.455C244 325.838 243.652 324.561 241.545 322.455C238.7 319.609 237.078 319.425 235.042 321.719ZM214 332C214 334.2 214.45 336 215 336C215.55 336 216 334.2 216 332C216 329.8 215.55 328 215 328C214.45 328 214 329.8 214 332Z" fill="#C4A47C"/>
</svg>
